<svg width="192" height="192" viewBox="0 0 192 192" fill="none" xmlns="http://www.w3.org/2000/svg">
<g clip-path="url(#clip0_509_26)">
<path d="M162 0H30C13.4315 0 0 13.4315 0 30V162C0 178.569 13.4315 192 30 192H162C178.569 192 192 178.569 192 162V30C192 13.4315 178.569 0 162 0Z" fill="#0A0A0A"/>
<path d="M43.5 48.875C43.5 47.011 45.011 45.5 46.875 45.5H74.4361C77.583 45.5 80.3879 47.4845 81.4353 50.452C82.4104 53.2149 85.0218 55.0625 87.9517 55.0625H144.75C146.614 55.0625 148.125 56.5735 148.125 58.4375V134.75C148.125 136.614 146.614 138.125 144.75 138.125H46.875C45.011 138.125 43.5 136.614 43.5 134.75V48.875Z" fill="white"/>
<path d="M84.4088 127.25C82.7275 127.25 81.1755 126.96 79.7529 126.38C78.3303 125.865 77.1663 125.092 76.261 124.061C75.4203 122.966 75 121.646 75 120.1C75 118.103 75.6143 116.235 76.843 114.496C78.1363 112.757 79.8822 111.372 82.0808 110.341C84.2794 109.31 86.8014 108.795 89.6467 108.795C90.8753 108.795 92.0393 108.924 93.1386 109.182C94.2379 109.439 95.0139 109.697 95.4665 109.955V65.375H99.8314C100.09 66.2124 100.413 66.9532 100.801 67.5973C101.189 68.177 101.771 68.8534 102.547 69.6264C103.388 70.335 104.584 71.3012 106.136 72.5251C108.917 74.5863 111.083 76.5832 112.635 78.5157C114.252 80.4481 115.383 82.4772 116.03 84.6029C116.677 86.7286 117 89.1119 117 91.753C117 94.0075 116.677 96.1976 116.03 98.3233C115.383 100.449 114.672 102.317 113.896 103.927L110.986 102.768C111.503 101.158 111.827 99.7082 111.956 98.4199C112.15 97.1316 112.247 95.7145 112.247 94.1685C112.247 90.8189 111.18 87.7914 109.046 85.086C106.977 82.3162 104.099 80.3515 100.413 79.192V111.501C100.413 114.979 99.6697 117.878 98.1824 120.197C96.6951 122.515 94.7229 124.255 92.2656 125.414C89.873 126.638 87.254 127.25 84.4088 127.25Z" fill="black"/>
</g>
<defs>
<clipPath id="clip0_509_26">
<rect width="192" height="192" fill="white"/>
</clipPath>
</defs>
</svg>
