<svg width="512" height="512" viewBox="0 0 512 512" fill="none" xmlns="http://www.w3.org/2000/svg">
<g clip-path="url(#clip0_509_32)">
<path d="M432 0H80C35.8172 0 0 35.8172 0 80V432C0 476.183 35.8172 512 80 512H432C476.183 512 512 476.183 512 432V80C512 35.8172 476.183 0 432 0Z" fill="#0A0A0A"/>
<path d="M116 133C116 128.029 120.029 124 125 124H198.496C206.888 124 214.368 129.292 217.161 137.205C219.761 144.573 226.725 149.5 234.538 149.5H386C390.971 149.5 395 153.529 395 158.5V362C395 366.971 390.971 371 386 371H125C120.029 371 116 366.971 116 362V133Z" fill="white"/>
<path d="M225.09 342C220.607 342 216.468 341.227 212.674 339.681C208.881 338.307 205.777 336.246 203.363 333.497C201.121 330.577 200 327.056 200 322.933C200 317.608 201.638 312.627 204.915 307.989C208.363 303.351 213.019 299.658 218.882 296.909C224.745 294.161 231.47 292.787 239.058 292.787C242.334 292.787 245.438 293.13 248.37 293.818C251.301 294.505 253.37 295.192 254.577 295.879V177H266.217C266.907 179.233 267.769 181.208 268.804 182.926C269.838 184.472 271.39 186.276 273.46 188.337C275.701 190.227 278.891 192.803 283.03 196.067C290.445 201.564 296.222 206.889 300.36 212.042C304.671 217.195 307.689 222.606 309.413 228.274C311.138 233.943 312 240.299 312 247.341C312 253.353 311.138 259.194 309.413 264.862C307.689 270.531 305.792 275.512 303.723 279.806L295.963 276.714C297.343 272.42 298.205 268.555 298.55 265.12C299.067 261.684 299.326 257.905 299.326 253.783C299.326 244.851 296.48 236.777 290.79 229.563C285.272 222.176 277.598 216.937 267.769 213.845V300.001C267.769 309.277 265.786 317.007 261.82 323.191C257.854 329.375 252.594 334.013 246.042 337.104C239.661 340.368 232.677 342 225.09 342Z" fill="black"/>
</g>
<defs>
<clipPath id="clip0_509_32">
<rect width="512" height="512" fill="white"/>
</clipPath>
</defs>
</svg>
